HIERARCHY
ROOT Hips
{
	OFFSET 0.000000 0.000000 0.000000
	CHANNELS 6 Xposition Yposition Zposition Zrotation Yrotation Xrotation 
	JOINT LHipJoint
	{
		OFFSET 0.000000 0.000000 0.000000
		CHANNELS 3 Zrotation Yrotation Xrotation
		JOINT LeftUpLeg
		{
			OFFSET 1.363060 -1.794630 0.839290
			CHANNELS 3 Zrotation Yrotation Xrotation
			JOINT LeftLeg
			{
				OFFSET 2.448110 -6.726130 0.000000
				CHANNELS 3 Zrotation Yrotation Xrotation
				JOINT LeftFoot
				{
					OFFSET 2.562200 -7.039590 0.000000
					CHANNELS 3 Zrotation Yrotation Xrotation
					JOINT LeftToeBase
					{
						OFFSET 0.157640 -0.433110 2.322550
						CHANNELS 3 Zrotation Yrotation Xrotation
						End Site
						{
							OFFSET 0.000000 0.000000 0.000000
						}
					}
				}
			}
		}
	}
	JOINT RHipJoint
	{
		OFFSET 0.000000 0.000000 0.000000
		CHANNELS 3 Zrotation Yrotation Xrotation
		JOINT RightUpLeg
		{
			OFFSET -1.305520 -1.794630 0.839290
			CHANNELS 3 Zrotation Yrotation Xrotation
			JOINT RightLeg
			{
				OFFSET -2.542530 -6.985550 0.000000
				CHANNELS 3 Zrotation Yrotation Xrotation
				JOINT RightFoot
				{
					OFFSET -2.568260 -7.056230 0.000000
					CHANNELS 3 Zrotation Yrotation Xrotation
					JOINT RightToeBase
					{
						OFFSET -0.164730 -0.452590 2.363150
						CHANNELS 3 Zrotation Yrotation Xrotation
						End Site
						{
							OFFSET 0.000000 0.000000 0.000000
						}
					}
				}
			}
		}
	}
}
MOTION
Frames: 24
Frame Time: 0.008333
-10.218492 17.743677 -1.850437 172.526336 89.355538 -165.489666 -9.433105 0.465052 3.621140 -9.190181 -3.525238 -34.542094 -2.588521 -1.578396 4.323451 1.428536 5.831689 -8.770256 0.068000 0.000000 -20.449401 9.101478 -2.754351 -0.430443 12.592227 -1.802145 -10.223096 0.921190 -1.416225 22.683706 -0.468537 -3.321402 14.505416 -1.636000 -0.000000 -67.472200
-9.993044 17.725233 -1.858316 172.836672 89.427244 -165.509302 -9.458126 0.477177 3.621563 -9.287133 -3.191451 -34.166568 -2.653821 -1.644009 3.366659 1.257455 5.037426 -8.273394 0.112100 -0.000000 -21.779400 9.171051 -2.753795 -0.592732 12.528533 -2.436339 -10.332467 0.708101 -1.552167 24.672428 -0.629698 -4.166956 14.879323 -1.936700 0.000000 -67.229900
-9.770059 17.695168 -1.865115 172.411263 89.433412 -166.231432 -9.448966 0.513092 3.648527 -9.294539 -3.154652 -33.921637 -2.683244 -1.646635 3.047622 1.145553 4.536047 -7.849382 0.147399 0.000000 -22.973201 9.274468 -2.713681 -0.759117 12.445881 -3.045459 -10.618898 0.480522 -1.680255 26.968570 -0.840501 -5.338545 14.816573 -2.342400 -0.000000 -66.486301
-9.549972 17.653530 -1.870360 171.198850 89.366500 -167.699800 -9.401663 0.571413 3.705802 -9.204958 -3.445572 -33.807094 -2.674243 -1.589621 3.344084 1.097301 4.368089 -7.492883 0.182300 -0.000000 -24.010499 9.415725 -2.633258 -0.928617 12.341666 -3.613851 -11.082261 0.245769 -1.801735 29.554124 -1.098129 -6.805260 14.329427 -2.821900 0.000001 -65.222800
-9.333251 17.600434 -1.873631 169.215259 89.223239 -169.904259 -9.317277 0.646639 3.779594 -9.055028 -4.016228 -33.832708 -2.634384 -1.475243 4.259415 1.105084 4.492090 -7.219106 0.218500 0.000000 -24.858400 9.594871 -2.517468 -1.096539 12.208228 -4.121083 -11.703402 0.013471 -1.920195 32.394743 -1.396144 -8.502814 13.441830 -3.322800 0.000000 -63.434600
-9.120183 17.536028 -1.874684 166.550925 89.002953 -172.756593 -9.202824 0.730778 3.854785 -8.895922 -4.792782 -34.022367 -2.572630 -1.306849 5.792932 1.157155 4.835837 -7.044792 0.254000 -0.000000 -25.526500 9.807272 -2.375862 -1.255654 12.035960 -4.553539 -12.477194 -0.207130 -2.041652 35.460927 -1.723241 -10.337699 12.195688 -3.779200 0.000000 -61.147800
-8.910981 17.460470 -1.873791 163.599535 88.721212 -175.870774 -9.082404 0.813285 3.901237 -8.803517 -5.600010 -34.437818 -2.505971 -1.080689 7.999554 1.226871 5.227564 -7.017818 0.274799 -0.000000 -26.015400 10.031662 -2.224971 -1.393033 11.835203 -4.886277 -13.392050 -0.409694 -2.171934 38.713361 -2.065035 -12.214859 10.657878 -4.133400 -0.000000 -58.459099
-8.705689 17.374317 -1.871070 160.545132 88.406770 -179.068379 -8.971219 0.886779 3.903011 -8.813370 -6.332099 -35.079133 -2.437195 -0.802017 10.830295 1.301063 5.588622 -7.164107 0.270600 0.000000 -26.324900 10.256969 -2.075014 -1.501198 11.607868 -5.100906 -14.433411 -0.593278 -2.315465 42.107923 -2.403621 -14.031132 8.903763 -4.337300 0.000000 -55.504099
-8.504154 17.278335 -1.866807 157.529130 88.093452 177.794294 -8.879908 0.945499 3.857013 -8.924613 -6.933280 -35.919109 -2.361694 -0.482422 14.174601 1.375365 5.897969 -7.502568 0.234600 0.000000 -26.472000 10.475069 -1.932855 -1.574668 11.363764 -5.180873 -15.592724 -0.760607 -2.474110 45.600104 -2.720398 -15.690940 7.003287 -4.361700 -0.000000 -52.388900
-8.306188 17.173727 -1.861465 154.739916 87.818982 174.905689 -8.817982 0.985187 3.760542 -9.119624 -7.345062 -36.924788 -2.277150 -0.134167 17.915277 1.445418 6.134051 -8.059472 0.160000 -0.000000 -26.473600 10.677378 -1.803223 -1.608808 11.126885 -5.108403 -16.855204 -0.917197 -2.646038 49.135986 -2.999990 -17.124067 5.034032 -4.206600 -0.000000 -49.282400
-8.111123 17.062481 -1.855012 151.977141 87.603788 172.071055 -8.778282 1.005384 3.622340 -9.378810 -7.577211 -38.027532 -2.182603 0.222215 21.874345 1.516326 6.335574 -8.838746 0.046700 0.000000 -26.397900 10.870866 -1.685994 -1.601435 10.894309 -4.882680 -18.215547 -1.067803 -2.829059 52.662084 -3.229175 -18.267811 3.060428 -3.888100 0.000000 -46.312200
-7.918526 16.946642 -1.847620 149.208489 87.458221 169.260781 -8.758099 1.005547 3.451353 -9.674823 -7.641354 -39.166335 -2.081035 0.570232 25.897820 1.591591 6.524506 -9.852245 -0.107300 -0.000000 -26.319600 11.054320 -1.581158 -1.554202 10.676278 -4.511352 -19.661741 -1.215438 -3.019523 56.123330 -3.400269 -19.087367 1.124124 -3.438000 -0.000000 -43.567800
-7.727630 16.828888 -1.839142 146.199943 87.377514 166.242044 -8.749225 0.988152 3.256790 -9.999065 -7.561795 -40.275456 -1.979652 0.895286 29.838096 1.674892 6.722614 -11.094328 -0.303100 0.000000 -26.334600 11.231722 -1.487309 -1.469332 10.462681 -4.013680 -21.184339 -1.360879 -3.214492 59.464330 -3.509628 -19.564737 -0.744638 -2.895801 0.000000 -41.093700
-7.537699 16.711985 -1.829519 142.756749 87.348100 162.818275 -8.746446 0.956397 3.046237 -10.347779 -7.360079 -41.299116 -1.886477 1.188204 33.579591 1.767737 6.935383 -12.549746 -0.541700 -0.000000 -26.520500 11.403195 -1.403382 -1.350739 10.243763 -3.415943 -22.770737 -1.503028 -3.411217 62.632896 -3.558441 -19.705967 -2.529684 -2.303900 -0.000000 -38.902100
-7.348017 16.598667 -1.818741 138.725021 87.351464 158.829962 -8.747838 0.913526 2.825651 -10.717245 -7.055718 -42.187579 -1.808253 1.443832 37.032561 1.869956 7.158751 -14.187278 -0.822500 0.000000 -26.927900 11.565539 -1.328466 -1.204047 10.011172 -2.748335 -24.404847 -1.639392 -3.607126 65.581011 -3.552249 -19.540104 -4.223929 -1.702401 -0.000000 -36.976199
-7.157954 16.491582 -1.806910 134.011530 87.367867 154.174978 -8.754746 0.862715 2.599947 -11.101421 -6.667032 -42.896663 -1.749648 1.659664 40.128117 1.979961 7.383692 -15.958741 -1.141100 -0.000001 -27.572301 11.712544 -1.261685 -1.036321 9.760994 -2.041755 -26.066903 -1.766806 -3.799419 68.266857 -3.500361 -19.117474 -5.823130 -1.125600 -0.000001 -35.282500
-6.966880 16.393047 -1.794199 128.583287 87.377658 148.812380 -8.770351 0.807748 2.374373 -11.491977 -6.213268 -43.392025 -1.713272 1.834895 42.815391 2.095106 7.600341 -17.801809 -1.488600 0.000001 -28.431600 11.836768 -1.201274 -0.854919 9.491896 -1.325345 -27.738535 -1.882088 -3.984668 70.658665 -3.414920 -18.504348 -7.325227 -0.598400 0.000000 -33.779000
-6.774368 16.305101 -1.780843 122.521484 87.366767 142.812660 -8.799149 0.753291 2.153257 -11.876308 -5.710707 -43.645722 -1.699849 1.970120 45.058775 2.211534 7.799372 -19.645195 -1.851900 0.000000 -29.448901 11.930241 -1.144411 -0.667876 9.209667 -0.623779 -29.397336 -1.982358 -4.158473 72.733394 -3.309860 -17.777394 -8.728158 -0.135801 -0.000000 -32.420100
-6.579945 16.229393 -1.767050 115.999647 87.326720 136.341670 -8.844351 0.705273 1.941223 -12.239294 -5.175534 -43.641449 -1.708396 2.066864 46.837783 2.324772 7.974765 -21.414860 -2.214800 -0.000000 -30.541000 11.987267 -1.086939 -0.482111 8.924842 0.044696 -31.023258 -2.065208 -4.315780 74.478436 -3.199389 -17.014413 -10.031671 0.258200 -0.000000 -31.157400
-6.383343 16.167078 -1.753168 109.303256 87.260101 129.678505 -8.907730 0.669079 1.741771 -12.560134 -4.619755 -43.375774 -1.736132 2.127581 48.149743 2.429744 8.122475 -23.041813 -2.559900 0.000000 -31.618900 12.004477 -1.024646 -0.303435 8.657511 0.669802 -32.596630 -2.128247 -4.451664 75.888469 -3.096878 -16.287769 -11.240311 0.589100 0.000000 -29.938500
-6.184183 16.118967 -1.738835 102.563533 87.158609 122.954022 -8.984443 0.651414 1.561187 -12.839352 -4.069065 -42.852875 -1.779504 2.153566 48.996837 2.523862 8.252879 -24.462487 -2.873200 0.000000 -32.585300 11.986084 -0.952599 -0.133839 8.405435 1.242348 -34.110823 -2.170208 -4.563156 76.969747 -3.011893 -15.647763 -12.361613 0.868400 0.000000 -28.715000
-5.982364 16.085397 -1.724519 96.122546 87.043451 116.508703 -9.074715 0.652240 1.400153 -13.048059 -3.526510 -42.092800 -1.832838 2.148203 49.410245 2.602272 8.364828 -25.633664 -3.141999 -0.000000 -33.395300 11.931593 -0.870854 0.024200 8.203516 1.767365 -35.548283 -2.188504 -4.647935 77.724720 -2.952829 -15.136787 -13.409155 1.111100 -0.000000 -27.439200
-5.777658 16.066336 -1.709845 90.045949 86.917798 110.412253 -9.173482 0.672020 1.261571 -13.185562 -3.009377 -41.119399 -1.890878 2.113724 49.421097 2.663853 8.471658 -26.524322 -3.360301 0.000000 -34.018699 11.846193 -0.779328 0.171083 8.055930 2.246133 -36.905486 -2.181664 -4.706100 78.162258 -2.922845 -14.766711 -14.397468 1.331700 0.000000 -26.079400
-5.570005 16.061551 -1.694549 84.359461 86.789362 104.695001 -9.277874 0.708696 1.146236 -13.249185 -2.526109 -39.962628 -1.948388 2.053294 49.072257 2.707976 8.583578 -27.121422 -3.525600 0.000001 -34.466300 11.733197 -0.680656 0.308326 7.971018 2.685089 -38.177003 -2.148191 -4.738371 78.288470 -2.922216 -14.532272 -15.339776 1.541900 -0.000000 -24.623001
